<svg id="kity_svg_6" xmlns="http://www.w3.org/2000/svg" xmlns:xlink="http://www.w3.org/1999/xlink" version="1.1" width="748" height="280" style="background: rgb(251, 251, 251); visibility: visible;" viewBox="0 0 748 280"><defs id="kity_defs_7"><linearGradient id="kity_linearGradient_17" x1="0" y1="0" x2="0" y2="1"><stop id="kity_stop_18" offset="0" stop-color="rgb(255, 255, 255)"></stop><stop id="kity_stop_19" offset="1" stop-color="rgb(204, 204, 204)"></stop></linearGradient><marker id="kity_marker_2" orient="auto" refX="6" refY="0" viewBox="-7 -7 14 14" markerWidth="7" markerHeight="7" markerUnits="userSpaceOnUse"><path id="kity_path_3" fill="rgb(115, 161, 191)" stroke="none" d="M6,0A6,6,0,1,1,-6,0A6,6,0,1,1,6,0"></path></marker></defs><g id="kity_g_8"><g id="minder1" text-rendering="optimize-speed"><g id="minder_connect_group1"><path id="kity_path_76" fill="none" stroke="rgb(115, 161, 191)" stroke-width="1" d="M77,127.5A174.5,70,0,0,1,251.5,57.5"></path><path id="kity_path_84" fill="none" stroke="rgb(115, 161, 191)" stroke-width="1" d="M77,127.5A174.5,70,0,0,0,251.5,197.5"></path><path id="kity_path_92" fill="none" stroke="rgb(115, 161, 191)" stroke-width="1" d="M365.5,57.5C385.5,57.5,385.5,31.5,405.5,31.5"></path><path id="kity_path_100" fill="none" stroke="rgb(115, 161, 191)" stroke-width="1" d="M365.5,57.5C385.5,57.5,385.5,83.5,405.5,83.5"></path><path id="kity_path_108" fill="none" stroke="rgb(115, 161, 191)" stroke-width="1" d="M463.5,31.5C483.5,31.5,483.5,31.5,503.5,31.5"></path><path id="kity_path_124" fill="none" stroke="rgb(115, 161, 191)" stroke-width="1" d="M475.5,83.5C495.5,83.5,495.5,83.5,515.5,83.5"></path><path id="kity_path_132" fill="none" stroke="rgb(115, 161, 191)" stroke-width="1" d="M351.5,197.5C371.5,197.5,371.5,145.5,391.5,145.5"></path><path id="kity_path_140" fill="none" stroke="rgb(115, 161, 191)" stroke-width="1" d="M351.5,197.5C371.5,197.5,371.5,197.5,391.5,197.5"></path><path id="kity_path_148" fill="none" stroke="rgb(115, 161, 191)" stroke-width="1" d="M351.5,197.5C371.5,197.5,371.5,249.5,391.5,249.5"></path></g><g id="minder_node1"><path id="node_outline1" fill="rgb(115, 161, 191)" stroke="rgb(115, 161, 191)" d="M25.5,107.5h103a5,5,0,0,1,5,5v30a5,5,0,0,1,-5,5h-103a5,5,0,0,1,-5,-5v-30a5,5,0,0,1,5,-5z" stroke-width="3"></path><g id="node_text1" fill="white"><text id="kity_text_22" text-rendering="inherit" font-size="16" dy=".8em" y="117.09999990463257" x="44.5">图像增强</text></g></g><g id="kity_g_12" display="none"><path id="kity_path_13" fill="none" stroke="none" d="M44.5,127.5h0v0h0z"></path></g><g id="kity_g_14" display="none"><path id="kity_path_15" fill="none" stroke="none" d="M44.5,127.5h0v0h0z"></path><path id="kity_path_16" fill="none" stroke="none"></path></g><g id="minder_node7"><g id="node_expander6" style="cursor: pointer;"><path id="kity_path_81" fill="white" stroke="gray" d="M252.5,57.5A6,6,0,1,1,240.5,57.5A6,6,0,1,1,252.5,57.5"></path><path id="kity_path_82" fill="none" stroke="gray" d="M242,57.5L251,57.5"></path></g><path id="node_outline7" fill="rgb(238, 243, 246)" stroke="rgb(115, 161, 191)" d="M256.5,44.5h106a3,3,0,0,1,3,3v20a3,3,0,0,1,-3,3h-106a3,3,0,0,1,-3,-3v-20a3,3,0,0,1,3,-3z" stroke-width="1"></path><g id="node_text7" fill="black"><text id="kity_text_78" text-rendering="inherit" font-size="14" dy=".8em" y="48.40000009536743" x="273.5">空间域增强</text></g></g><g id="minder_node8"><g id="node_expander7" style="cursor: pointer;"><path id="kity_path_89" fill="white" stroke="gray" d="M252.5,197.5A6,6,0,1,1,240.5,197.5A6,6,0,1,1,252.5,197.5"></path><path id="kity_path_90" fill="none" stroke="gray" d="M242,197.5L251,197.5"></path></g><path id="node_outline8" fill="rgb(238, 243, 246)" stroke="rgb(115, 161, 191)" d="M256.5,184.5h92a3,3,0,0,1,3,3v20a3,3,0,0,1,-3,3h-92a3,3,0,0,1,-3,-3v-20a3,3,0,0,1,3,-3z" stroke-width="1"></path><g id="node_text8" fill="black"><text id="kity_text_86" text-rendering="inherit" font-size="14" dy=".8em" y="188.40000009536743" x="273.5">频域增强</text></g></g><g id="minder_node9"><g id="node_expander8" style="cursor: pointer;"><path id="kity_path_97" fill="white" stroke="gray" d="M405.5,31.5A6,6,0,1,1,393.5,31.5A6,6,0,1,1,405.5,31.5"></path><path id="kity_path_98" fill="none" stroke="gray" d="M395,31.5L404,31.5"></path></g><path id="node_outline9" fill="none" stroke="none" d="M410.5,20.5h48a5,5,0,0,1,5,5v12a5,5,0,0,1,-5,5h-48a5,5,0,0,1,-5,-5v-12a5,5,0,0,1,5,-5z" stroke-width="3"></path><g id="node_text9" fill="black"><text id="kity_text_94" text-rendering="inherit" font-size="12" dy=".8em" y="23.700000047683716" x="415.5">点变换</text></g></g><g id="minder_node10"><g id="node_expander9" style="cursor: pointer;"><path id="kity_path_105" fill="white" stroke="gray" d="M405.5,83.5A6,6,0,1,1,393.5,83.5A6,6,0,1,1,405.5,83.5"></path><path id="kity_path_106" fill="none" stroke="gray" d="M395,83.5L404,83.5"></path></g><path id="node_outline10" fill="none" stroke="none" d="M410.5,72.5h60a5,5,0,0,1,5,5v12a5,5,0,0,1,-5,5h-60a5,5,0,0,1,-5,-5v-12a5,5,0,0,1,5,-5z" stroke-width="3"></path><g id="node_text10" fill="black"><text id="kity_text_102" text-rendering="inherit" font-size="12" dy=".8em" y="75.70000004768372" x="415.5">邻域变换</text></g></g><g id="minder_node11"><g id="node_expander10" style="cursor: pointer;" display="none"><path id="kity_path_113" fill="white" stroke="gray" d="M503.5,31.5A6,6,0,1,1,491.5,31.5A6,6,0,1,1,503.5,31.5"></path><path id="kity_path_114" fill="none" stroke="gray"></path></g><path id="node_outline11" fill="none" stroke="none" d="M508.5,20.5h144a5,5,0,0,1,5,5v12a5,5,0,0,1,-5,5h-144a5,5,0,0,1,-5,-5v-12a5,5,0,0,1,5,-5z" stroke-width="3"></path><g id="node_text11" fill="black"><text id="kity_text_110" text-rendering="inherit" font-size="12" dy=".8em" y="23.700000047683716" x="513.5">灰度变换、直方图均衡等</text></g></g><g id="minder_node13"><g id="node_expander12" style="cursor: pointer;" display="none"><path id="kity_path_129" fill="white" stroke="gray" d="M515.5,83.5A6,6,0,1,1,503.5,83.5A6,6,0,1,1,515.5,83.5"></path><path id="kity_path_130" fill="none" stroke="gray"></path></g><path id="node_outline13" fill="none" stroke="none" d="M520.5,72.5h203a5,5,0,0,1,5,5v12a5,5,0,0,1,-5,5h-203a5,5,0,0,1,-5,-5v-12a5,5,0,0,1,5,-5z" stroke-width="3"></path><g id="node_text13" fill="black"><text id="kity_text_126" text-rendering="inherit" font-size="12" dy=".8em" y="75.70000004768372" x="525.5">空间滤波（高斯模板、均值模板等）</text></g></g><g id="minder_node14"><g id="node_expander13" style="cursor: pointer;" display="none"><path id="kity_path_137" fill="white" stroke="gray" d="M391.5,145.5A6,6,0,1,1,379.5,145.5A6,6,0,1,1,391.5,145.5"></path><path id="kity_path_138" fill="none" stroke="gray"></path></g><path id="node_outline14" fill="none" stroke="none" d="M396.5,134.5h60a5,5,0,0,1,5,5v12a5,5,0,0,1,-5,5h-60a5,5,0,0,1,-5,-5v-12a5,5,0,0,1,5,-5z" stroke-width="3"></path><g id="node_text14" fill="black"><text id="kity_text_134" text-rendering="inherit" font-size="12" dy=".8em" y="137.70000004768372" x="401.5">低通滤波</text></g></g><g id="minder_node15"><g id="node_expander14" style="cursor: pointer;" display="none"><path id="kity_path_145" fill="white" stroke="gray" d="M391.5,197.5A6,6,0,1,1,379.5,197.5A6,6,0,1,1,391.5,197.5"></path><path id="kity_path_146" fill="none" stroke="gray"></path></g><path id="node_outline15" fill="none" stroke="none" d="M396.5,186.5h60a5,5,0,0,1,5,5v12a5,5,0,0,1,-5,5h-60a5,5,0,0,1,-5,-5v-12a5,5,0,0,1,5,-5z" stroke-width="3"></path><g id="node_text15" fill="black"><text id="kity_text_142" text-rendering="inherit" font-size="12" dy=".8em" y="189.70000004768372" x="401.5">高通滤波</text></g></g><g id="minder_node16"><g id="node_expander15" style="cursor: pointer;" display="none"><path id="kity_path_153" fill="white" stroke="gray" d="M391.5,249.5A6,6,0,1,1,379.5,249.5A6,6,0,1,1,391.5,249.5"></path><path id="kity_path_154" fill="none" stroke="gray"></path></g><path id="node_outline16" fill="none" stroke="none" d="M396.5,238.5h72a5,5,0,0,1,5,5v12a5,5,0,0,1,-5,5h-72a5,5,0,0,1,-5,-5v-12a5,5,0,0,1,5,-5z" stroke-width="3"></path><g id="node_text16" fill="black"><text id="kity_text_150" text-rendering="inherit" font-size="12" dy=".8em" y="241.70000004768372" x="401.5">选择性滤波</text></g></g></g></g></svg>